<svg width="17" height="17" viewBox="0 0 17 17" fill="none" xmlns="http://www.w3.org/2000/svg">
<path d="M13.4583 14.8748V2.12476C13.4579 1.99567 13.4223 1.86914 13.3554 1.75878C13.2884 1.64842 13.1926 1.55841 13.0783 1.49845C12.964 1.43849 12.8355 1.41084 12.7066 1.41848C12.5777 1.42611 12.4534 1.46875 12.347 1.5418L3.13864 7.9168C2.75685 8.18101 2.75685 8.81709 3.13864 9.08201L12.347 15.457C12.4532 15.5308 12.5776 15.5741 12.7067 15.5821C12.8357 15.5902 12.9646 15.5627 13.0791 15.5027C13.1937 15.4427 13.2896 15.3524 13.3564 15.2417C13.4233 15.131 13.4586 15.0041 13.4583 14.8748Z" fill="#C0C0C0"/>
</svg>
