<svg width="21" height="20" viewBox="0 0 21 20" fill="none" xmlns="http://www.w3.org/2000/svg">
<g clip-path="url(#clip0_436_5109)">
<g clip-path="url(#clip1_436_5109)">
<path d="M2.04663 9.99967C2.04663 6.85717 2.04663 5.28551 3.0233 4.30967C3.99996 3.33384 5.5708 3.33301 8.7133 3.33301H12.0466C15.1891 3.33301 16.7608 3.33301 17.7366 4.30967C18.7125 5.28634 18.7133 6.85717 18.7133 9.99967V11.6663C18.7133 14.8088 18.7133 16.3805 17.7366 17.3563C16.76 18.3322 15.1891 18.333 12.0466 18.333H8.7133C5.5708 18.333 3.99913 18.333 3.0233 17.3563C2.04746 16.3797 2.04663 14.8088 2.04663 11.6663V9.99967Z" stroke="black" stroke-width="1.25"/>
<path d="M6.21338 3.33301V2.08301M14.5467 3.33301V2.08301M2.46338 7.49967H18.2967" stroke="black" stroke-width="1.25" stroke-linecap="round"/>
<path d="M15.38 14.1667C15.38 14.3877 15.2922 14.5997 15.1359 14.7559C14.9797 14.9122 14.7677 15 14.5467 15C14.3257 15 14.1137 14.9122 13.9574 14.7559C13.8012 14.5997 13.7133 14.3877 13.7133 14.1667C13.7133 13.9457 13.8012 13.7337 13.9574 13.5774C14.1137 13.4212 14.3257 13.3333 14.5467 13.3333C14.7677 13.3333 14.9797 13.4212 15.1359 13.5774C15.2922 13.7337 15.38 13.9457 15.38 14.1667ZM15.38 10.8333C15.38 11.0543 15.2922 11.2663 15.1359 11.4226C14.9797 11.5788 14.7677 11.6667 14.5467 11.6667C14.3257 11.6667 14.1137 11.5788 13.9574 11.4226C13.8012 11.2663 13.7133 11.0543 13.7133 10.8333C13.7133 10.6123 13.8012 10.4003 13.9574 10.2441C14.1137 10.0878 14.3257 10 14.5467 10C14.7677 10 14.9797 10.0878 15.1359 10.2441C15.2922 10.4003 15.38 10.6123 15.38 10.8333ZM11.2133 14.1667C11.2133 14.3877 11.1255 14.5997 10.9693 14.7559C10.813 14.9122 10.601 15 10.38 15C10.159 15 9.947 14.9122 9.79075 14.7559C9.6345 14.5997 9.54667 14.3877 9.54667 14.1667C9.54667 13.9457 9.6345 13.7337 9.79075 13.5774C9.947 13.4212 10.159 13.3333 10.38 13.3333C10.601 13.3333 10.813 13.4212 10.9693 13.5774C11.1255 13.7337 11.2133 13.9457 11.2133 14.1667ZM11.2133 10.8333C11.2133 11.0543 11.1255 11.2663 10.9693 11.4226C10.813 11.5788 10.601 11.6667 10.38 11.6667C10.159 11.6667 9.947 11.5788 9.79075 11.4226C9.6345 11.2663 9.54667 11.0543 9.54667 10.8333C9.54667 10.6123 9.6345 10.4003 9.79075 10.2441C9.947 10.0878 10.159 10 10.38 10C10.601 10 10.813 10.0878 10.9693 10.2441C11.1255 10.4003 11.2133 10.6123 11.2133 10.8333ZM7.04667 14.1667C7.04667 14.3877 6.95887 14.5997 6.8026 14.7559C6.64631 14.9122 6.43435 15 6.21334 15C5.99232 15 5.78036 14.9122 5.62408 14.7559C5.4678 14.5997 5.38 14.3877 5.38 14.1667C5.38 13.9457 5.4678 13.7337 5.62408 13.5774C5.78036 13.4212 5.99232 13.3333 6.21334 13.3333C6.43435 13.3333 6.64631 13.4212 6.8026 13.5774C6.95887 13.7337 7.04667 13.9457 7.04667 14.1667ZM7.04667 10.8333C7.04667 11.0543 6.95887 11.2663 6.8026 11.4226C6.64631 11.5788 6.43435 11.6667 6.21334 11.6667C5.99232 11.6667 5.78036 11.5788 5.62408 11.4226C5.4678 11.2663 5.38 11.0543 5.38 10.8333C5.38 10.6123 5.4678 10.4003 5.62408 10.2441C5.78036 10.0878 5.99232 10 6.21334 10C6.43435 10 6.64631 10.0878 6.8026 10.2441C6.95887 10.4003 7.04667 10.6123 7.04667 10.8333Z" fill="black"/>
</g>
</g>
<defs>
<clipPath id="clip0_436_5109">
<rect width="20" height="20" fill="white" transform="translate(0.380005)"/>
</clipPath>
<clipPath id="clip1_436_5109">
<rect width="20" height="20" fill="white" transform="translate(0.380005)"/>
</clipPath>
</defs>
</svg>
